/* XPM */
static char * logosafet_small_xpm[] = {
"40 10 3 1",
" 	c None",
".	c #333333",
"+	c #800000",
" .....    ++++     ...  ...... .........",
"..       ++  ++   ..    .          ..   ",
"..       +    +   .     .          .    ",
"...      +    ++ ..     .          .    ",
" ....    +++++++ ..     ....       .    ",
"    ..  ++++++++ ...    .          .    ",
"     .. +++  +++ ..     .          .    ",
"      . +++  +++ ..     .          .    ",
"     .. +++  +++ ..     ..         .    ",
" .....  +++  +++  .       ....     .    "};
