/* XPM */
static char * toexecoff_xpm[] = {
"46 40 333 2",
"  	c None",
". 	c #E9E9E9",
"+ 	c #EAEAEA",
"@ 	c #EEEEEE",
"# 	c #DBDBDA",
"$ 	c #7F817D",
"% 	c #4E514C",
"& 	c #3C3F38",
"* 	c #41443D",
"= 	c #42453E",
"- 	c #434640",
"; 	c #43463F",
"> 	c #42453F",
", 	c #535650",
"' 	c #CDCDCC",
") 	c #C2C2C1",
"! 	c #484B44",
"~ 	c #7D7F7A",
"{ 	c #989A96",
"] 	c #969894",
"^ 	c #939591",
"/ 	c #8E908C",
"( 	c #787A76",
"_ 	c #565953",
": 	c #C9C9C9",
"< 	c #4F524C",
"[ 	c #C4C6C3",
"} 	c #FAFBF9",
"| 	c #F0F0EF",
"1 	c #E3E4E2",
"2 	c #CFD1CE",
"3 	c #DADBD9",
"4 	c #B8B9B6",
"5 	c #595C56",
"6 	c #C5C5C4",
"7 	c #BDBEBB",
"8 	c #E4E5E3",
"9 	c #CBCCCA",
"0 	c #B5B7B3",
"a 	c #8D9189",
"b 	c #B2B5AF",
"c 	c #B2B4B0",
"d 	c #C5C6C5",
"e 	c #D4D5D4",
"f 	c #BCBDBA",
"g 	c #C8C9C8",
"h 	c #F0EFF0",
"i 	c #F6F6F6",
"j 	c #939393",
"k 	c #7A7A7A",
"l 	c #7B7B7B",
"m 	c #747474",
"n 	c #9C9B9C",
"o 	c #9E9F9E",
"p 	c #52544F",
"q 	c #BEBFBC",
"r 	c #E4E5E4",
"s 	c #CCCDCB",
"t 	c #B6B8B4",
"u 	c #8E928A",
"v 	c #B3B6B0",
"w 	c #B4B6B2",
"x 	c #575A54",
"y 	c #909190",
"z 	c #ACACAC",
"A 	c #A5A5A5",
"B 	c #787878",
"C 	c #797979",
"D 	c #959595",
"E 	c #AAAAAA",
"F 	c #A7A7A7",
"G 	c #AEAEAE",
"H 	c #B1B1B1",
"I 	c #B3B2B3",
"J 	c #9A9A9A",
"K 	c #51544E",
"L 	c #BDBFBC",
"M 	c #919191",
"N 	c #A3A3A3",
"O 	c #A6A6A6",
"P 	c #A9A9A9",
"Q 	c #ABABAB",
"R 	c #BDBDBD",
"S 	c #B8B8B8",
"T 	c #D3D3D3",
"U 	c #FCFCFC",
"V 	c #EDEEED",
"W 	c #F2F2F2",
"X 	c #F9F9F9",
"Y 	c #D2D3D1",
"Z 	c #52554F",
"` 	c #E5E5E4",
" .	c #CCCDCA",
"..	c #B2B5B0",
"+.	c #585B55",
"@.	c #C3C4C2",
"#.	c #DDDEDD",
"$.	c #DDDDDC",
"%.	c #ECECEB",
"&.	c #FAFAFA",
"*.	c #CECECE",
"=.	c #B5B5B5",
"-.	c #C0C0C0",
";.	c #C6C6C6",
">.	c #ECEBEC",
",.	c #E2E2E1",
"'.	c #60635E",
").	c #555852",
"!.	c #C3C4C1",
"~.	c #E6E7E5",
"{.	c #B4B7B1",
"].	c #B7B9B5",
"^.	c #545750",
"/.	c #545751",
"(.	c #DFDFDE",
"_.	c #E5E5E5",
":.	c #C3C3C3",
"<.	c #E2E2E2",
"[.	c #A0A0A0",
"}.	c #CBCBCB",
"|.	c #838581",
"1.	c #767973",
"2.	c #B7B8B5",
"3.	c #B8BAB7",
"4.	c #D3D4D2",
"5.	c #D8DAD7",
"6.	c #CBCCC9",
"7.	c #90938C",
"8.	c #A1A59E",
"9.	c #BABCB8",
"0.	c #B0B1AE",
"a.	c #B2B4B1",
"b.	c #767974",
"c.	c #7B7C79",
"d.	c #DCDDDC",
"e.	c #EBEBEB",
"f.	c #A4A4A4",
"g.	c #E3E3E3",
"h.	c #969696",
"i.	c #CDCDCD",
"j.	c #EDEDED",
"k.	c #7C7E7A",
"l.	c #7E807B",
"m.	c #BFC0BD",
"n.	c #E9EAE9",
"o.	c #D4D6D3",
"p.	c #CDCFCB",
"q.	c #CBCDC9",
"r.	c #91958D",
"s.	c #90948C",
"t.	c #B1B4AF",
"u.	c #DADBDA",
"v.	c #7B7E79",
"w.	c #777975",
"x.	c #BBBCBB",
"y.	c #DEDEDE",
"z.	c #C8C8C8",
"A.	c #DFDFDF",
"B.	c #E0E0E0",
"C.	c #909090",
"D.	c #D0D0D0",
"E.	c #FDFDFD",
"F.	c #F1F1F1",
"G.	c #B0B1AF",
"H.	c #737671",
"I.	c #71746E",
"J.	c #C9CAC7",
"K.	c #CED0CD",
"L.	c #CFD1CD",
"M.	c #92958E",
"N.	c #939790",
"O.	c #ADAFAB",
"P.	c #BBBCBA",
"Q.	c #6C6F6A",
"R.	c #70726D",
"S.	c #A8A9A7",
"T.	c #DCDCDD",
"U.	c #868686",
"V.	c #D7D7D7",
"W.	c #9B9B9B",
"X.	c #D5D5D5",
"Y.	c #EFEFEF",
"Z.	c #ACADAB",
"`.	c #636561",
" +	c #858783",
".+	c #CECFCC",
"++	c #E2E3E1",
"@+	c #CDCECC",
"#+	c #969993",
"$+	c #B3B6B1",
"%+	c #BCBEBA",
"&+	c #7B7D79",
"*+	c #61635F",
"=+	c #A7A8A6",
"-+	c #E0E0E1",
";+	c #D8D8D8",
">+	c #D6D6D6",
",+	c #ECECEC",
"'+	c #CFCFCF",
")+	c #DBDBDB",
"!+	c #E4E4E4",
"~+	c #E1E1E1",
"{+	c #5B5E58",
"]+	c #979995",
"^+	c #D4D5D2",
"/+	c #E1E2DF",
"(+	c #B7BAB5",
"_+	c #BEC0BC",
":+	c #B1B3AF",
"<+	c #878985",
"[+	c #ACACAB",
"}+	c #D1D1D1",
"|+	c #D4D4D4",
"1+	c #E8E8E8",
"2+	c #C4C4C4",
"3+	c #BFBFBF",
"4+	c #E6E6E6",
"5+	c #F0F0F0",
"6+	c #DEDEDF",
"7+	c #949593",
"8+	c #6B6D68",
"9+	c #9EA09C",
"0+	c #D5D7D4",
"a+	c #C4C5C2",
"b+	c #878984",
"c+	c #656863",
"d+	c #929390",
"e+	c #CACACA",
"f+	c #D7D6D7",
"g+	c #D9D9D9",
"h+	c #B6B6B6",
"i+	c #BABABA",
"j+	c #7E807D",
"k+	c #777A75",
"l+	c #ADAFAC",
"m+	c #D6D7D5",
"n+	c #6B6E69",
"o+	c #CFCFD0",
"p+	c #C5C5C5",
"q+	c #AFAFAF",
"r+	c #DADADA",
"s+	c #DCDCDC",
"t+	c #F4F4F4",
"u+	c #D0D0CF",
"v+	c #898B87",
"w+	c #5F625C",
"x+	c #9B9D99",
"y+	c #CACBCA",
"z+	c #C1C1C1",
"A+	c #9E9E9E",
"B+	c #999999",
"C+	c #D2D2D2",
"D+	c #E7E7E7",
"E+	c #F3F3F3",
"F+	c #D7D7D6",
"G+	c #959794",
"H+	c #949592",
"I+	c #D1D1D0",
"J+	c #979797",
"K+	c #B7B7B7",
"L+	c #9D9D9D",
"M+	c #949494",
"N+	c #B2B2B2",
"O+	c #C7C7C7",
"P+	c #B3B4B3",
"Q+	c #959694",
"R+	c #B1B2B1",
"S+	c #B9B9B9",
"T+	c #DDDDDD",
"U+	c #E8E7E8",
"V+	c #FBFBFB",
"W+	c #F5F5F5",
"X+	c #929292",
"Y+	c #A2A2A2",
"Z+	c #8B8B8B",
"`+	c #898989",
" @	c #8A8A8A",
".@	c #8C8C8C",
"+@	c #8F8F8F",
"@@	c #9F9F9F",
"#@	c #989898",
"$@	c #4A4A4A",
"%@	c #444444",
"&@	c #484848",
"*@	c #3F3F3F",
"=@	c #404040",
"-@	c #434343",
";@	c #474747",
">@	c #4B4B4B",
",@	c #4E4E4E",
"'@	c #525252",
")@	c #545454",
"!@	c #5E5E5E",
"~@	c #757575",
"{@	c #5A5A5A",
"]@	c #6B6B6B",
"^@	c #737373",
"/@	c #626262",
"(@	c #535353",
"_@	c #414141",
":@	c #494949",
"<@	c #363636",
"[@	c #313131",
"}@	c #3B3B3B",
"|@	c #353535",
"1@	c #393939",
"2@	c #3D3D3D",
"3@	c #464646",
"4@	c #767676",
"5@	c #666666",
"6@	c #6E6E6E",
"7@	c #707070",
"8@	c #5B5B5B",
"9@	c #676767",
"0@	c #565656",
"a@	c #2E2E2E",
"b@	c #424242",
"c@	c #333333",
"d@	c #3A3A3A",
"e@	c #3C3C3C",
"f@	c #3E3E3E",
"g@	c #616161",
"h@	c #5D5D5D",
"i@	c #606060",
"j@	c #5C5C5C",
"k@	c #454545",
"l@	c #656565",
"m@	c #373737",
"n@	c #8D8D8D",
"o@	c #8E8E8E",
"p@	c #9C9C9C",
"q@	c #B4B4B4",
"r@	c #CCCCCC",
"                    .                                                                       ",
"                    .                                                                       ",
"                                                                                            ",
"                                                                                            ",
"                                                                                            ",
"                                                                                            ",
"                                                                                            ",
"                                    + @                                                     ",
"                                    # $ % & * = - ; > , '                                   ",
"                                    ) ! ~ { ] ^ / / ( _ :                                   ",
"                                      < [ } | 1 2 3 4 5 6                                   ",
"                                      < 7 8 9 0 a b c 5 d                                   ",
"                                    e , f 8 9 0 a b c 5 g h i                               ",
"                          j k l m n o p q r s t u v w x y z A B C D                         ",
"                        E F E G H I J K L r s t u v w x M N O G P O Q                       ",
"                      R S T U V W X Y Z f `  .t u v ..+.@.#.$.%.&.*.=.-.                    ",
"                      P ;.>.,.'.).5 , < !.~.9 t u {.].^., x /.'.(._.:.z                     ",
"                    <.[.}.i _.|., 1.2.3.4.5.6.t 7.8.9.0.a.b.Z c.d.e.;.f.g.                  ",
"                    g.h.i.&.j.9 k.l.m.n.o.p.q.t r.s.t.u.4 v.w.x.y.j.z.D A.                  ",
"                    B.C.D.E.F.W G.H.I.J.K.L. .t M.N.O.P.Q.R.S.<.T.@ }.U.                    ",
"                    V.W.X.E.Y.g.+ Z.`. +.+++@+t #+$+%+&+*+=+-+;+>+,+'+C.                    ",
"                    *.G )+X Y.!+~+V.G.{+]+^+/+(+_+:+<+5 [+}+V.X.|+1+|+F }.                  ",
"                    2+3+B.Y.4+5+!+6+'+7+8+9+++0+a+b+c+d+e+f+X.g+}+<.V.h+}.                  ",
"                    i+i.!+_.)+j.,+_.y.>+j+k+l+m+{ n+$ o+X.V.g+>+i.)+;+p+                    ",
"                    q+r+4+s+i.T 1+t+F.g.u+v+w+x+w+<+y+g+<.B.>+z.z+}+r+|+                    ",
"                    A+g.+ -.B+z.*.C+)+D+E+F+G+K H+I++ y.C+z.p+3+J+K+y.s+L+                  ",
"                    M+j.<.3+N+C+O+-.2+: '+: P+Q+R+p+: :.R S+S h+F z+4+. h.                  ",
"                    C.t+t+_.1+W D+B.B.y.T+y.<.U+<.T+)+)+T+T+s+)+y.+ V+W M                   ",
"                    M+T+F.W W F.W W W t+t+t+E+F.W W t+i W E+W+i W F.5+s+X+                  ",
"                    Y+Z+`+Z+Z+Z+Z+ @.@D h.h.j  @`++@B+@@.@+@J @@.@`+`+ @#@                  ",
"                  y.q+$@%@&@*@=@-@;@>@,@'@)@!@~@{@]@^@'@m /@>@(@~@!@_@:@#@                  ",
"                @ B.Q <@[@}@|@<@1@2@=@_@%@3@)@4@5@6@7@8@^@9@0@8@m (@a@|@j                   ",
"                Y.T+A b@c@1@d@d@e@f@*@*@_@_@:@!@g@!@h@i@j@h@!@!@h@k@[@=@#@                  ",
"                Y.A.N+l@*@|@m@m@m@m@m@m@<@<@<@|@|@|@|@|@|@|@|@|@<@|@f@g@H                   ",
"                    D.K+f.L+A+L+W.B+h.D j X+X+M n@o@C.M X+C.M J+B+p@A q@r@                  ",
"                      B.y.>+                    T }.      '+T                               ",
"                      @ @                       E+                                          ",
"                                                                                            ",
"                                                                                            ",
"                                                                                            "};
