/* XPM */
static char * toexecon_xpm[] = {
"46 40 542 2",
"  	c None",
". 	c #E5E9EC",
"+ 	c #E6E9ED",
"@ 	c #EAECF3",
"# 	c #D7E2D7",
"$ 	c #7CB24C",
"% 	c #4C9805",
"& 	c #398E00",
"* 	c #3E9100",
"= 	c #3F9100",
"- 	c #419100",
"; 	c #409100",
"> 	c #519C0B",
", 	c #C8DAC0",
"' 	c #BED5B1",
") 	c #459600",
"! 	c #7BB742",
"~ 	c #97C76A",
"{ 	c #95C567",
"] 	c #91C361",
"^ 	c #8CC259",
"/ 	c #8CC457",
"( 	c #76B639",
"_ 	c #539D0F",
": 	c #C5D8BA",
"< 	c #4B9A03",
"[ 	c #C4E4A5",
"} 	c #FAFFEF",
"| 	c #EFFFE0",
"1 	c #E2FCCA",
"2 	c #CEF7A7",
"3 	c #D9FDB6",
"4 	c #B6E28D",
"5 	c #569F13",
"6 	c #C1D6B3",
"7 	c #4C9A04",
"8 	c #BBE09A",
"9 	c #E3FBCC",
"0 	c #CAF2A4",
"a 	c #B4ED7E",
"b 	c #8CE338",
"c 	c #B2EF75",
"d 	c #B1DE86",
"e 	c #C1D6B4",
"f 	c #D0E1CB",
"g 	c #509C09",
"h 	c #BADF97",
"i 	c #8CE337",
"j 	c #B1EF75",
"k 	c #B1DD86",
"l 	c #C4D9B6",
"m 	c #EBEFF2",
"n 	c #F2F5FB",
"o 	c #929491",
"p 	c #7A7D77",
"q 	c #7B7D78",
"r 	c #747670",
"s 	c #9B989F",
"t 	c #9CAA93",
"u 	c #4F9B08",
"v 	c #BCE199",
"w 	c #CBF2A5",
"x 	c #B5ED7F",
"y 	c #8DE339",
"z 	c #B2EF76",
"A 	c #B2DF88",
"B 	c #549E11",
"C 	c #90A47C",
"D 	c #ABADAB",
"E 	c #A3A5A4",
"F 	c #787A75",
"G 	c #7A7C76",
"H 	c #949793",
"I 	c #A9ABA9",
"J 	c #A6A8A5",
"K 	c #AAABA7",
"L 	c #AEADAE",
"M 	c #B1AFB2",
"N 	c #B3ADB7",
"O 	c #9AA58E",
"P 	c #4E9A08",
"Q 	c #549D11",
"R 	c #93A47F",
"S 	c #A5A2A3",
"T 	c #A6A4A7",
"U 	c #AEACAE",
"V 	c #A9AAA7",
"W 	c #A6A8A4",
"X 	c #AAACA9",
"Y 	c #BABEBD",
"Z 	c #B8B9B7",
"` 	c #D4D3D2",
" .	c #FCFCFA",
"..	c #EDF3E6",
"+.	c #F2F8EB",
"@.	c #F9FCF6",
"#.	c #D1E3C0",
"$.	c #BADF98",
"%.	c #E4FBCD",
"&.	c #B1DD87",
"*.	c #559F12",
"=.	c #C4DBAB",
"-.	c #DEE4D6",
";.	c #DCE3D6",
">.	c #EBF2E5",
",.	c #FAFAF8",
"'.	c #CECECD",
").	c #B5B6B4",
"!.	c #BEC1C1",
"~.	c #A8AAA9",
"{.	c #C7C7C5",
"].	c #EDE9EE",
"^.	c #E2EAD9",
"/.	c #5EA31D",
"(.	c #539D0D",
"_.	c #579F13",
":.	c #519B0A",
"<.	c #4D9905",
"[.	c #C2E2A3",
"}.	c #E5FCCF",
"|.	c #B3F078",
"1.	c #B6E08F",
"2.	c #519B0C",
"3.	c #519B0B",
"4.	c #559D11",
"5.	c #529C0C",
"6.	c #5FA31D",
"7.	c #DFE7D6",
"8.	c #E6E2E7",
"9.	c #C2C3C2",
"0.	c #DEE2E4",
"a.	c #A0A29F",
"b.	c #CCCCCA",
"c.	c #F6F3F7",
"d.	c #E5EBDE",
"e.	c #83B650",
"f.	c #529C09",
"g.	c #75B537",
"h.	c #B6DE8F",
"i.	c #B7DE92",
"j.	c #D2F0B5",
"k.	c #D8F6BA",
"l.	c #CBF2A3",
"m.	c #8FE33C",
"n.	c #A0E959",
"o.	c #B8EA89",
"p.	c #AEDB83",
"q.	c #B2DD87",
"r.	c #75B636",
"s.	c #519B08",
"t.	c #7AAD47",
"u.	c #DDE3D5",
"v.	c #EBEAED",
"w.	c #C5C7C4",
"x.	c #A3A5A1",
"y.	c #DFE3E5",
"z.	c #DFE3E6",
"A.	c #959894",
"B.	c #CDCECC",
"C.	c #FAF9FB",
"D.	c #EDEFEB",
"E.	c #CBDCB9",
"F.	c #7BB246",
"G.	c #7CB942",
"H.	c #BDE598",
"I.	c #E8FED4",
"J.	c #D3F6B2",
"K.	c #CCF2A7",
"L.	c #CBF2A4",
"M.	c #90E33E",
"N.	c #8EE33C",
"O.	c #B0ED74",
"P.	c #D9FABA",
"Q.	c #7AB83E",
"R.	c #76AD41",
"S.	c #BBCDA9",
"T.	c #DEE1DB",
"U.	c #EDEDED",
"V.	c #C8C9C6",
"W.	c #949792",
"X.	c #DCE0E2",
"Y.	c #8F928E",
"Z.	c #D0D0CE",
"`.	c #FDFDFC",
" +	c #F1F1F1",
".+	c #F2EFF4",
"++	c #B0CC95",
"@+	c #72AE39",
"#+	c #6EB22E",
"$+	c #C8EAA7",
"%+	c #CEF3A9",
"&+	c #CFF4AA",
"*+	c #91E440",
"=+	c #92E542",
"-+	c #ACEA6F",
";+	c #BAE58F",
">+	c #6AB028",
",+	c #6EAA35",
"'+	c #A7C38C",
")+	c #E2DFE4",
"!+	c #DDDDDB",
"~+	c #EFEFED",
"{+	c #CCCCC9",
"]+	c #868883",
"^+	c #D4D8D9",
"/+	c #9A9D99",
"(+	c #D6D6D4",
"_+	c #EFF0EE",
":+	c #E4E4E1",
"<+	c #EBE6EC",
"[+	c #ACC890",
"}+	c #62A61F",
"|+	c #84BF4B",
"1+	c #CDEBB0",
"2+	c #E2FACA",
"3+	c #CDF3A8",
"4+	c #95E548",
"5+	c #B3EE79",
"6+	c #BBE692",
"7+	c #79B93B",
"8+	c #60A51D",
"9+	c #A7C38B",
"0+	c #E1DEE3",
"a+	c #D8DAD6",
"b+	c #D7D8D4",
"c+	c #EDEDEB",
"d+	c #D0D0CD",
"e+	c #91928D",
"f+	c #CBCED0",
"g+	c #AEB0AC",
"h+	c #DBDCDA",
"i+	c #F9F9F8",
"j+	c #E4E5E2",
"k+	c #E2E1E0",
"l+	c #D8DBD4",
"m+	c #B0C897",
"n+	c #59A313",
"o+	c #96CB63",
"p+	c #D3EFB9",
"q+	c #E0F9C8",
"r+	c #B6ED82",
"s+	c #BEF18B",
"t+	c #B1E47F",
"u+	c #86C34A",
"v+	c #58A210",
"w+	c #ACC493",
"x+	c #D2D4CD",
"y+	c #D8D8D7",
"z+	c #D6D7D3",
"A+	c #D5D6D2",
"B+	c #E8E9E7",
"C+	c #D4D5D2",
"D+	c #A7A9A5",
"E+	c #C9CDCC",
"F+	c #C1C4C5",
"G+	c #BEC0BD",
"H+	c #E1E1DF",
"I+	c #EFEFEE",
"J+	c #E6E7E4",
"K+	c #F0F1EF",
"L+	c #DFDDDF",
"M+	c #D0D4CA",
"N+	c #94B870",
"O+	c #69AB2A",
"P+	c #9DCE6E",
"Q+	c #E1F8CB",
"R+	c #D4F6B5",
"S+	c #C3ED9A",
"T+	c #85C548",
"U+	c #64A823",
"V+	c #93B76D",
"W+	c #CBCFC5",
"X+	c #D7D5D7",
"Y+	c #D6D8D3",
"Z+	c #DADBD7",
"`+	c #D1D3CF",
" @	c #E2E3E0",
".@	c #D7D8D6",
"+@	c #B5B8B4",
"@@	c #B8BBBA",
"#@	c #E5E5E3",
"$@	c #E7E7E4",
"%@	c #DCDCD9",
"&@	c #ECEEEC",
"*@	c #ECECEA",
"=@	c #DEDFDC",
"-@	c #D8D8D4",
";@	c #7EAD50",
">@	c #75B23C",
",@	c #ACD782",
"'@	c #D5EFBC",
")@	c #96CE62",
"!@	c #6AAD2A",
"~@	c #7FAC52",
"{@	c #D1D2CC",
"]@	c #D6D6D3",
"^@	c #D8D9D5",
"/@	c #D9DBD7",
"(@	c #D6D8D4",
"_@	c #CDCFCA",
":@	c #DBDCD9",
"<@	c #D8D9D7",
"[@	c #C4C7C3",
"}@	c #AEB0AD",
"|@	c #DADBD8",
"1@	c #E7E7E5",
"2@	c #DCDDDA",
"3@	c #D4D6D0",
"4@	c #F4F4F3",
"5@	c #F1F0F0",
"6@	c #E4E3E1",
"7@	c #D0D5C9",
"8@	c #88B45E",
"9@	c #5DA618",
"0@	c #9ACD69",
"a@	c #86B15C",
"b@	c #CBD0C4",
"c@	c #E1E2DE",
"d@	c #C8CAC5",
"e@	c #C1C4BE",
"f@	c #9D9F9C",
"g@	c #E3E3E2",
"h@	c #EAEAE8",
"i@	c #C0C1BE",
"j@	c #9A9B96",
"k@	c #CFD1CB",
"l@	c #D2D4CF",
"m@	c #DBDDD9",
"n@	c #E7E8E6",
"o@	c #F3F2F4",
"p@	c #D7E5C8",
"q@	c #95C368",
"r@	c #4F9C06",
"s@	c #93C166",
"t@	c #D1DFC2",
"u@	c #EBE9EB",
"v@	c #D2D3CF",
"w@	c #C9CBC5",
"x@	c #C5C8C2",
"y@	c #BFC2BC",
"z@	c #979994",
"A@	c #B7B9B4",
"B@	c #DEDFDB",
"C@	c #9C9F9B",
"D@	c #949692",
"E@	c #EDEDEC",
"F@	c #BFC1BB",
"G@	c #B3B5AF",
"H@	c #D3D4D0",
"I@	c #C8CAC4",
"J@	c #C1C3BC",
"K@	c #C5C7C1",
"L@	c #CACBC6",
"M@	c #CFD0CD",
"N@	c #C9CEC5",
"O@	c #B3C1A5",
"P@	c #95AF7A",
"Q@	c #B2BFA4",
"R@	c #C6CAC0",
"S@	c #CACBC7",
"T@	c #C3C5BF",
"U@	c #BDC0B9",
"V@	c #B9BCB5",
"W@	c #B8BBB4",
"X@	c #B7BAB3",
"Y@	c #A7AAA3",
"Z@	c #C1C3BE",
"`@	c #E5E7E4",
" #	c #969894",
".#	c #90928D",
"+#	c #F4F5F3",
"@#	c #E5E6E3",
"##	c #E9EAE7",
"$#	c #F2F3F1",
"%#	c #E7E8E5",
"&#	c #E1E2DF",
"*#	c #DFE0DC",
"=#	c #DDDFDB",
"-#	c #DEDFDD",
";#	c #E2E1E3",
">#	c #E8E4EB",
",#	c #E3E1E3",
"'#	c #DEDEDC",
")#	c #DDDFDA",
"!#	c #DCDEDA",
"~#	c #DEE0DC",
"{#	c #E9EBE8",
"]#	c #FAFBFA",
"^#	c #F1F2F1",
"/#	c #92938F",
"(#	c #929691",
"_#	c #DDDEDC",
":#	c #F2F2F2",
"<#	c #F2F2F1",
"[#	c #F1F1F0",
"}#	c #F4F4F4",
"|#	c #F3F3F3",
"1#	c #F2F3F2",
"2#	c #F6F6F5",
"3#	c #F3F3F2",
"4#	c #F5F5F5",
"5#	c #F0F1F0",
"6#	c #DCDDDB",
"7#	c #A0A5A3",
"8#	c #8A8D89",
"9#	c #888B86",
"0#	c #8B8D88",
"a#	c #8A8C87",
"b#	c #8C8E89",
"c#	c #959792",
"d#	c #969893",
"e#	c #939590",
"f#	c #898B86",
"g#	c #8F918C",
"h#	c #999B96",
"i#	c #9FA19C",
"j#	c #9A9C97",
"k#	c #979998",
"l#	c #DADEE1",
"m#	c #ACB0B2",
"n#	c #474C4D",
"o#	c #414644",
"p#	c #464A49",
"q#	c #3C4142",
"r#	c #3D4243",
"s#	c #404545",
"t#	c #444948",
"u#	c #484D4B",
"v#	c #4D504F",
"w#	c #515352",
"x#	c #535553",
"y#	c #5E605D",
"z#	c #757773",
"A#	c #5A5C58",
"B#	c #6A6C68",
"C#	c #737571",
"D#	c #505351",
"E#	c #737672",
"F#	c #606361",
"G#	c #494C4B",
"H#	c #515453",
"I#	c #747673",
"J#	c #5C605D",
"K#	c #3E4341",
"L#	c #474A4A",
"M#	c #96989A",
"N#	c #EAEFF1",
"O#	c #DCE0E3",
"P#	c #A8ABAE",
"Q#	c #32383A",
"R#	c #2E3333",
"S#	c #383D3D",
"T#	c #313738",
"U#	c #333839",
"V#	c #373B3B",
"W#	c #3B3F3E",
"X#	c #3E4241",
"Y#	c #3F4342",
"Z#	c #434645",
"`#	c #444745",
" $	c #535552",
".$	c #767874",
"+$	c #656864",
"@$	c #6E706B",
"#$	c #70726E",
"$$	c #595C5A",
"%$	c #727570",
"&$	c #666865",
"*$	c #555856",
"=$	c #595B5A",
"-$	c #737572",
";$	c #515553",
">$	c #2A3030",
",$	c #313638",
"'$	c #909395",
")$	c #DADDE0",
"!$	c #A2A6A8",
"~$	c #3E4346",
"{$	c #2F3536",
"]$	c #363B3A",
"^$	c #373C3B",
"/$	c #383C3C",
"($	c #393E3D",
"_$	c #3C4040",
":$	c #3D4140",
"<$	c #464A48",
"[$	c #5C605E",
"}$	c #5F6361",
"|$	c #5D605E",
"1$	c #5C5F5C",
"2$	c #5E625F",
"3$	c #5A5E5C",
"4$	c #5C5F5D",
"5$	c #424746",
"6$	c #2D3334",
"7$	c #3C4244",
"8$	c #95989A",
"9$	c #DBDFE1",
"0$	c #AFB2B4",
"a$	c #606669",
"b$	c #3B4143",
"c$	c #313739",
"d$	c #33393B",
"e$	c #33383B",
"f$	c #31373A",
"g$	c #32373A",
"h$	c #313639",
"i$	c #3A4042",
"j$	c #5D6365",
"k$	c #AEB1B3",
"l$	c #CCD0D3",
"m$	c #B4B7B9",
"n$	c #A1A4A7",
"o$	c #9A9DA0",
"p$	c #9B9EA0",
"q$	c #9A9D9F",
"r$	c #989B9D",
"s$	c #96989B",
"t$	c #939698",
"u$	c #929597",
"v$	c #909496",
"w$	c #8F9395",
"x$	c #8F9294",
"y$	c #8F9193",
"z$	c #8B8D8F",
"A$	c #8C8E90",
"B$	c #8E9193",
"C$	c #8D9092",
"D$	c #949799",
"E$	c #96999B",
"F$	c #999D9F",
"G$	c #A1A5A7",
"H$	c #B1B4B7",
"I$	c #C9CCCF",
"J$	c #DDE0E3",
"K$	c #D2D6D8",
"L$	c #D0D3D5",
"M$	c #C8CBCD",
"N$	c #CCCFD2",
"O$	c #CFD3D5",
"P$	c #EAEEF1",
"Q$	c #EFF3F6",
"                    .                                                                       ",
"                    .                                                                       ",
"                                                                                            ",
"                                                                                            ",
"                                                                                            ",
"                                                                                            ",
"                                                                                            ",
"                                    + @                                                     ",
"                                    # $ % & * = - ; ; > ,                                   ",
"                                    ' ) ! ~ { ] ^ / ( _ :                                   ",
"                                      < [ } | 1 2 3 4 5 6                                   ",
"                                      7 8 9 0 a b c d 5 e                                   ",
"                                    f g h 9 0 a i j k 5 l m n                               ",
"                          o p q r s t u v 9 w x y z A B C D E F G H                         ",
"                        I J K L M N O P v 9 w x y z A Q R S T U V W X                       ",
"                      Y Z `  ...+.@.#.g $.%.w x y z &.*.=.-.;.>.,.'.).!.                    ",
"                      ~.{.].^./.(._.:.<.[.}.0 x y |.1.2.3.4.5.6.7.8.9.D                     ",
"                    0.a.b.c.d.e.f.g.h.i.j.k.l.x m.n.o.p.q.r.s.t.u.v.w.x.y.                  ",
"                    z.A.B.C.D.E.F.G.H.I.J.K.L.x M.N.O.P.4 Q.R.S.T.U.V.W.X.                  ",
"                    X.Y.Z.`. +.+++@+#+$+%+&+w x *+=+-+;+>+,+'+)+!+~+{+]+                    ",
"                    ^+/+(+`._+:+<+[+}+|+1+2+3+x 4+5+6+7+8+9+0+a+b+c+d+e+                    ",
"                    f+g+h+i+_+j+k+l+m+n+o+p+q+r+s+t+u+v+w+x+y+z+A+B+C+D+E+                  ",
"                    F+G+H+I+J+K+j+L+M+N+O+P+Q+R+S+T+U+V+W+X+Y+Z+`+ @.@+@E+                  ",
"                    @@B.#@$@%@&@*@#@=@-@;@>@,@'@)@!@~@{@]@^@/@(@_@:@<@[@                    ",
"                    }@|@1@2@_@3@B+4@5@6@7@8@9@0@9@a@b@|@ @c@b+d@e@`+|@C+                    ",
"                    f@g@h@i@j@d@k@l@m@n@o@p@q@r@s@t@u@=@v@w@x@y@z@A@B@2@C@                  ",
"                    D@E@ @F@G@H@I@J@K@L@M@N@O@P@Q@R@S@T@U@V@W@X@Y@Z@`@B+ #                  ",
"                    .#4@+#@###$#%#&#c@*#=#-#;#>#,#'#m@m@)#)#!#2@~#{#]#^#/#                  ",
"                    (#_# +:#<#[#^#:#:#4@4@}#|# +<#1#}#2#:#3#4#2#:#<#5#6#o                   ",
"                    7#8#9#0#0#0#0#a#b#c#d#d#e#a#f#g#h#i#b#g#j#i#b#f#f#a#k#                  ",
"                  l#m#n#o#p#q#r#s#t#u#v#w#x#y#z#A#B#C#D#E#F#G#H#I#J#K#L#M#                  ",
"                N#O#P#Q#R#S#T#U#V#W#X#Y#Z#`# $.$+$@$#$$$%$&$*$=$-$;$>$,$'$                  ",
"                m )$!$~${$]$^$/$($W#_$:$X#X#<$[$}$|$1$2$3$1$|$4$3$5$6$7$8$                  ",
"                m 9$0$a$b$c$d$d$d$d$d$e$Q#Q#Q#c$c$c$c$c$c$c$c$f$g$h$i$j$k$                  ",
"                    l$m$n$o$p$q$r$s$t$u$v$w$x$y$z$A$B$y$x$C$B$D$E$F$G$H$I$                  ",
"                      J$l#K$                    L$M$      N$O$                              ",
"                      P$P$                      Q$                                          ",
"                                                                                            ",
"                                                                                            ",
"                                                                                            "};
